<?xml version="1.0" encoding="utf-8"?>
<!-- Generator: Adobe Illustrator 16.0.0, SVG Export Plug-In . SVG Version: 6.00 Build 0)  -->
<!DOCTYPE svg PUBLIC "-//W3C//DTD SVG 1.1//EN" "http://www.w3.org/Graphics/SVG/1.1/DTD/svg11.dtd">
<svg version="1.1" id="Calque_1" xmlns="http://www.w3.org/2000/svg" xmlns:xlink="http://www.w3.org/1999/xlink" x="0px" y="0px"
	 width="41.333px" height="38.333px" viewBox="0 0 41.333 38.333" enable-background="new 0 0 41.333 38.333" xml:space="preserve">
<g id="Dossier">
	<path fill="#EFE417" stroke="#E5211E" stroke-miterlimit="10" d="M33.784,13.329V6.774H20.875l-4.761-2.946H1.333v33.017h30.173
		h2.279c4.356,0,4.559-6.315,4.559-8.142s0-15.375,0-15.375H33.784z M5.319,7.813h9.662l4.761,2.946h10.057v2.569H7.895
		c0,0,0,12.639,0,14.465c0,1.493-0.888,3.276-2.349,5.065H5.319V7.813z M36.068,28.703c0,0.979-0.11,5.864-2.282,5.864H7.09
		c1.979-2.354,3.082-4.721,3.082-6.773V15.606h25.896V28.703z"/>
</g>
</svg>
